<?xml version="1.0" encoding="UTF-8" standalone="no"?>
<!-- Created with Inkscape (http://www.inkscape.org/) -->

<svg
   version="1.1"
   id="svg2"
   xml:space="preserve"
   width="744.81335"
   height="111.29333"
   viewBox="0 0 744.81335 111.29333"
   sodipodi:docname="CENTRAL_LOGOTYPE_1.svg"
   inkscape:version="1.1 (c68e22c387, 2021-05-23)"
   xmlns:inkscape="http://www.inkscape.org/namespaces/inkscape"
   xmlns:sodipodi="http://sodipodi.sourceforge.net/DTD/sodipodi-0.dtd"
   xmlns="http://www.w3.org/2000/svg"
   xmlns:svg="http://www.w3.org/2000/svg"><defs
     id="defs6" /><sodipodi:namedview
     id="namedview4"
     pagecolor="#ffffff"
     bordercolor="#666666"
     borderopacity="1.0"
     inkscape:pageshadow="2"
     inkscape:pageopacity="0.0"
     inkscape:pagecheckerboard="0"
     showgrid="false"
     inkscape:zoom="1.5480388"
     inkscape:cx="372.40668"
     inkscape:cy="55.877151"
     inkscape:window-width="1366"
     inkscape:window-height="638"
     inkscape:window-x="0"
     inkscape:window-y="27"
     inkscape:window-maximized="1"
     inkscape:current-layer="g8" /><g
     id="g8"
     inkscape:groupmode="layer"
     inkscape:label="ink_ext_XXXXXX"
     transform="matrix(1.3333333,0,0,-1.3333333,0,111.29333)"><g
       id="g10"
       transform="scale(0.1)"><path
         d="m 1472.95,103.125 h -314.23 v 251.152 h 265.7 v 103.114 h -265.7 v 240.211 h 302.1 V 800.723 H 1051.98 V 0 h 420.97 v 103.125"
         style="fill:#100f0d;fill-opacity:1;fill-rule:nonzero;stroke:none"
         id="path12" /><path
         d="M 406.426,0 C 526.555,0 632.09,49.7188 704.871,129.805 l -78.848,77.668 c -53.378,-60.657 -131.035,-98.285 -219.597,-98.285 -171.043,0 -288.738,137.089 -288.738,308.16 0,171.074 117.695,308.117 288.738,308.117 87.363,0 163.801,-36.387 217.179,-94.582 l 76.446,78.851 C 627.234,787.359 524.109,834.703 406.426,834.703 174.719,834.703 0,649.078 0,417.348 0,185.625 174.719,0 406.426,0"
         style="fill:#100f0d;fill-opacity:1;fill-rule:nonzero;stroke:none"
         id="path14" /><path
         d="M 4558.41,613.891 4676.07,291.18 H 4439.51 Z M 4403.12,188.035 H 4713.7 L 4781.63,0 h 111.62 l -303.3,800.723 h -63.1 L 4223.54,0 h 111.63 l 67.95,188.035"
         style="fill:#100f0d;fill-opacity:1;fill-rule:nonzero;stroke:none"
         id="path16" /><path
         d="m 5586.12,103.125 h -302.1 V 800.723 H 5177.26 V 0 h 408.86 v 103.125"
         style="fill:#100f0d;fill-opacity:1;fill-rule:nonzero;stroke:none"
         id="path18" /><path
         d="m 2835.06,0 h 106.77 v 697.602 h 229.28 V 800.723 H 2605.77 V 697.602 h 229.29 V 0"
         style="fill:#100f0d;fill-opacity:1;fill-rule:nonzero;stroke:none"
         id="path20" /><path
         d="M 2214.93,481.656 V 0 h 106.8 V 513.219 L 2075.45,834.703 1829.17,513.219 V 0 h 106.77 v 481.656 l 139.51,186.856 139.48,-186.856"
         style="fill:#100f0d;fill-opacity:1;fill-rule:nonzero;stroke:none"
         id="path22" /><path
         d="m 3561.92,697.602 h 58.25 v -1.231 c 78.85,0 131.03,-53.359 131.03,-120.078 0,-66.727 -52.18,-143.164 -118.91,-143.164 h -70.37 z M 3455.17,0 h 106.75 V 330.02 H 3833.7 V 0 h 106.77 V 433.129 H 3797.3 c 29.1,29.098 60.66,92.199 60.66,143.164 0,123.73 -99.49,224.43 -237.79,224.43 h -165 V 0"
         style="fill:#100f0d;fill-opacity:1;fill-rule:nonzero;stroke:none"
         id="path24" /></g></g></svg>
